<svg width="43" height="44" viewBox="0 0 43 44" fill="none" xmlns="http://www.w3.org/2000/svg">
<path d="M11.7154 7.53149H9.49365V16.5995H11.7154V7.53149Z" fill="#1C5D99"/>
<path d="M2.81171 13.7788H0V21.8864H2.81171V13.7788Z" fill="#1C5D99"/>
<path d="M11.7154 19.0659H9.49365V28.1339H11.7154V19.0659Z" fill="#1C5D99"/>
<path d="M31.5322 9.93735V7.30222H42.2869V2.42284C42.2869 1.08843 41.1979 0 39.8629 0H2.424C1.08895 0 0 1.08843 0 2.42284V6.19358H2.81171H2.82182V2.82047H20.4877V25.5493H30.6793V28.6832H20.4877V32.5988C20.3562 32.6359 20.2247 32.673 20.1 32.7336L2.82182 40.9457V29.9435H0V41.5758C0 42.4115 0.421419 43.1764 1.1294 43.6246C1.83401 44.0694 2.71057 44.1233 3.46575 43.7628L21.1451 35.3587L38.8245 43.7628C39.1582 43.9212 39.5122 43.9987 39.8662 43.9987C40.3146 43.9987 40.763 43.8706 41.1608 43.6212C41.8654 43.1731 42.2902 42.4081 42.2902 41.5724V9.93735H31.5322Z" fill="#1C5D99"/>
</svg>
